{"title":"Three Coins in the Fountain(1954)MP-4[DaScubaDude]","uid":12475481,"size":1247068788,"categoryP":"video","categoryS":"movies","magnet":"?xt=urn:btih:1e7a9bf0ddafaafa7c8fad56cebd2b2625c493b0&amp;dn=Three+Coins+in+the+Fountain%281954%29MP-4%5BDaScubaDude%5D&amp;tr=udp%3A%2F%2Ftracker.openbittorrent.com%3A80&amp;tr=udp%3A%2F%2Fopen.demonii.com%3A1337&amp;tr=udp%3A%2F%2Ftracker.coppersurfer.tk%3A6969&amp;tr=udp%3A%2F%2Fexodus.desync.com%3A6969","seeders":6,"leechers":3,"uploader":"dascuba","files":1,"time":1442973668,"description":"Three Coins in the Fountain (1954)\nUnrated  |  102 min  |  Drama  |  May 1954 (USA)\n6.3 Your rating:   -/10   Ratings: 6.3/10 from 2,036 users   \nReviews: 36 user | 17 critic\nAmerican girls dream of finding romance in Rome, but there is none for secretaries, Anita tells her replacement at the USDA. But Maria soon meets Prince Dino de Cessi at a party at her ... See full summary Â»\n\nDirector: Jean Negulesco\nWriters: John Patrick (screen play), John H. Secondari (from a novel by)\nStars: Clifton Webb, Dorothy McGuire, Jean Peters \n\nGeneral\nComplete name                            : C:Three Coins in the FountainTHREECOINSINTHEFOUNTAIN_Title1.mp4\nFormat                                   : MPEG-4\nFormat profile                           : Base Media\nCodec ID                                 : isom\nFile size                                : 1.16 GiB\nDuration                                 : 1h 41mn\nOverall bit rate mode                    : Constant\nOverall bit rate                         : 1 633 Kbps\nMovie name                               : THREECOINSINTHEFOUNTAIN\nGenre                                    : Romance\nWriting application                      : Lavf54.6.100\n\nVideo\nID                                       : 1\nFormat                                   : MPEG-4 Visual\nFormat settings, BVOP                    : No\nFormat settings, QPel                    : No\nFormat settings, GMC                     : No warppoints\nFormat settings, Matrix                  : Default (H.263)\nCodec ID                                 : 20\nDuration                                 : 1h 41mn\nBit rate mode                            : Constant\nBit rate                                 : 1 500 Kbps\nWidth                                    : 720 pixels\nHeight                                   : 404 pixels\nDisplay aspect ratio                     : 16:9\nFrame rate mode                          : Constant\nFrame rate                               : 29.970 fps\nColor space                              : YUV\nChroma subsampling                       : 4:2:0\nBit depth                                : 8 bits\nScan type                                : Progressive\nCompression mode                         : Lossy\nBits/(Pixel*Frame)                       : 0.172\nStream size                              : 1.07 GiB (92%)\nWriting library                          : Lavc54.23.100\n\nAudio\nID                                       : 2\nFormat                                   : MPEG Audio\nFormat version                           : Version 1\nFormat profile                           : Layer 3\nCodec ID                                 : 6B\nDuration                                 : 1h 41mn\nBit rate mode                            : Constant\nBit rate                                 : 128 Kbps\nChannel(s)                               : 2 channels\nSampling rate                            : 44.1 KHz\nCompression mode                         : Lossy\nStream size                              : 93.2 MiB (8%)\nWriting library                          : LAME3.99.5","torrent":{"xt":"urn:btih:1e7a9bf0ddafaafa7c8fad56cebd2b2625c493b0","amp;dn":"Three+Coins+in+the+Fountain%281954%29MP-4%5BDaScubaDude%5D","amp;tr":["udp%3A%2F%2Ftracker.openbittorrent.com%3A80","udp%3A%2F%2Fopen.demonii.com%3A1337","udp%3A%2F%2Ftracker.coppersurfer.tk%3A6969","udp%3A%2F%2Fexodus.desync.com%3A6969"],"infoHash":"1e7a9bf0ddafaafa7c8fad56cebd2b2625c493b0","infoHashBuffer":{"type":"Buffer","data":[30,122,155,240,221,175,170,250,124,143,173,86,206,189,43,38,37,196,147,176]},"announce":[],"urlList":[]}}